<mxfile host="app.diagrams.net" modified="2020-11-23T15:34:51.261Z" agent="5.0 (Windows NT 10.0; Win64; x64) AppleWebKit/537.36 (KHTML, like Gecko) Chrome/86.0.4240.75 Safari/537.36" etag="P4z5YJrf-LdWTKHZJp-J" version="13.9.7" type="github">
  <diagram id="PEaXwJb2kLWRihi0_zSz" name="Page-1">
    <mxGraphModel dx="868" dy="450" grid="1" gridSize="10" guides="1" tooltips="1" connect="1" arrows="1" fold="1" page="1" pageScale="1" pageWidth="827" pageHeight="1169" math="0" shadow="0">
      <root>
        <mxCell id="0" />
        <mxCell id="1" parent="0" />
        <mxCell id="Z4gu3PCcdylCU9HVwgt0-7" value="" style="rounded=1;whiteSpace=wrap;html=1;fillColor=#dae8fc;strokeColor=#6c8ebf;shadow=0;sketch=1;" vertex="1" parent="1">
          <mxGeometry x="100" y="30" width="470" height="310" as="geometry" />
        </mxCell>
        <mxCell id="Z4gu3PCcdylCU9HVwgt0-6" value="" style="rounded=1;whiteSpace=wrap;html=1;fillColor=#f5f5f5;strokeColor=#666666;fontColor=#333333;sketch=1;" vertex="1" parent="1">
          <mxGeometry x="140" y="80" width="380" height="220" as="geometry" />
        </mxCell>
        <mxCell id="Z4gu3PCcdylCU9HVwgt0-2" value="" style="rounded=1;whiteSpace=wrap;html=1;fillColor=#fff2cc;strokeColor=#d6b656;sketch=1;" vertex="1" parent="1">
          <mxGeometry x="190" y="130" width="280" height="140" as="geometry" />
        </mxCell>
        <mxCell id="Z4gu3PCcdylCU9HVwgt0-1" value="&lt;pre&gt;&lt;font style=&quot;font-size: 14px&quot;&gt;AbstractProxyInvoker&lt;/font&gt;&lt;/pre&gt;&lt;pre&gt;&lt;font style=&quot;font-size: 14px&quot;&gt;（调用本地服务方法）&lt;/font&gt;&lt;/pre&gt;" style="rounded=1;whiteSpace=wrap;html=1;fillColor=#ffe6cc;strokeColor=#d79b00;sketch=1;" vertex="1" parent="1">
          <mxGeometry x="240" y="180" width="180" height="60" as="geometry" />
        </mxCell>
        <mxCell id="Z4gu3PCcdylCU9HVwgt0-3" value="&lt;pre&gt;&lt;font style=&quot;font-size: 14px&quot;&gt;DelegateProviderMetaDataInvoker&lt;/font&gt;&lt;/pre&gt;" style="text;html=1;strokeColor=none;fillColor=none;align=center;verticalAlign=middle;whiteSpace=wrap;rounded=0;" vertex="1" parent="1">
          <mxGeometry x="220" y="140" width="230" height="30" as="geometry" />
        </mxCell>
        <mxCell id="Z4gu3PCcdylCU9HVwgt0-8" value="&lt;pre&gt;&lt;font style=&quot;font-size: 14px&quot;&gt;InvokerWrapper&lt;/font&gt;&lt;/pre&gt;" style="text;html=1;strokeColor=none;fillColor=none;align=center;verticalAlign=middle;whiteSpace=wrap;rounded=0;" vertex="1" parent="1">
          <mxGeometry x="270" y="90" width="120" height="30" as="geometry" />
        </mxCell>
        <mxCell id="Z4gu3PCcdylCU9HVwgt0-10" value="&lt;font style=&quot;font-size: 14px&quot;&gt;匿名内部类Invoker，一个匿名内部类执行一个Filter&lt;/font&gt;" style="text;html=1;strokeColor=none;fillColor=none;align=center;verticalAlign=middle;whiteSpace=wrap;rounded=0;" vertex="1" parent="1">
          <mxGeometry x="165" y="40" width="330" height="40" as="geometry" />
        </mxCell>
      </root>
    </mxGraphModel>
  </diagram>
</mxfile>
